<?xml version="1.0" encoding="UTF-8" standalone="no"?>
<!-- Created with Inkscape (http://www.inkscape.org/) -->

<svg
   version="1.1"
   id="svg9"
   width="475"
   height="340"
   viewBox="0 0 475 340"
   sodipodi:docname="ontario-lhins-map-final.svg"
   inkscape:version="1.1.1 (3bf5ae0d25, 2021-09-20)"
   xmlns:inkscape="http://www.inkscape.org/namespaces/inkscape"
   xmlns:sodipodi="http://sodipodi.sourceforge.net/DTD/sodipodi-0.dtd"
   xmlns="http://www.w3.org/2000/svg"
   xmlns:svg="http://www.w3.org/2000/svg">
  <defs
     id="defs13" />
  <sodipodi:namedview
     id="namedview11"
     pagecolor="#ffffff"
     bordercolor="#666666"
     borderopacity="1.0"
     inkscape:pageshadow="2"
     inkscape:pageopacity="0.0"
     inkscape:pagecheckerboard="0"
     showgrid="false"
     showguides="false"
     inkscape:zoom="1.0823529"
     inkscape:cx="-34.64674"
     inkscape:cy="329.83697"
     inkscape:window-width="1920"
     inkscape:window-height="974"
     inkscape:window-x="-11"
     inkscape:window-y="-11"
     inkscape:window-maximized="1"
     inkscape:current-layer="g15" />
  <g
     inkscape:groupmode="layer"
     inkscape:label="Image"
     id="g15">
    <rect
       style="fill:#ffffff;fill-opacity:1;stroke:#999999;stroke-width:1;stroke-miterlimit:4;stroke-dasharray:none;stroke-opacity:1"
       id="rect7102-7"
       width="435.41806"
       height="271.32135"
       x="22.631624"
       y="36.286335" />
    <path
       style="fill:#40bf40;fill-opacity:1;stroke:#000000;stroke-width:0.819542;stroke-opacity:1"
       d="m 179.99009,191.97919 -0.91879,1.71596 c -0.55082,1.02918 -1.72727,1.71588 -2.9388,1.71588 -1.47149,0 -2.01845,0.44402 -2.01845,1.63433 0,2.36536 -6.12452,6.56109 -9.57684,6.56109 -2.55509,0 -2.70261,0.13457 -1.86315,1.70317 1.27332,2.37921 0.49902,3.78719 -2.43784,4.43225 -1.38273,0.30364 -2.51787,0.98337 -2.51787,1.51099 0,0.52762 1.15883,3.85316 2.58188,7.3903 2.12657,5.28605 2.38391,6.55732 1.44545,7.1374 -0.90939,0.56196 -0.93373,0.91346 -0.12326,1.7239 0.55967,0.55967 1.01804,1.68793 1.01804,2.50821 0,0.82036 0.94706,2.9942 2.10647,4.83088 0.75242,1.19194 1.34716,2.30643 1.62146,2.99641 l 0.87077,1.06761 c 0.23619,-0.28094 0.50942,-0.57196 0.81954,-0.87715 1.30135,-1.28029 3.18884,-3.42085 4.19376,-4.7572 1.40142,-1.86347 2.73817,-2.56549 5.7368,-3.01083 2.15031,-0.3193 6.84621,-1.71047 10.43473,-3.09091 3.58862,-1.38035 7.64535,-2.4737 9.01497,-2.43142 6.37235,0.1967 8.2464,0.0459 8.49955,-0.68022 0.15031,-0.43107 3.87603,-0.78438 8.27869,-0.78438 7.47783,0 13.16709,-1.03016 13.16709,-2.38495 0,-0.32232 -1.08745,-1.62654 -2.41543,-2.8988 -2.71072,-2.59705 -4.19171,-8.00381 -3.54542,-12.94139 0.53442,-4.08321 -0.96067,-4.57461 -6.05855,-1.99124 -6.42726,3.25694 -10.45941,4.06296 -15.21595,3.04287 -8.51857,-1.82692 -12.15504,-5.00535 -9.3159,-8.14264 1.55369,-1.71678 0.55983,-3.32833 -2.97723,-4.8276 -1.961,-0.83126 -2.34898,-0.7393 -3.14213,0.74267 l -0.906,1.69195 -1.90798,-1.79439 z"
       id="path7060"
       inkscape:label="LHIN4_1" />
    <path
       style="fill:#40bf40;fill-opacity:1;stroke:#000000;stroke-width:0.819542;stroke-opacity:1"
       d="m 276.62828,36.53391 -10.40113,0.366499 c 1.41256,1.805451 7.28458,12.976877 7.28458,14.007452 0,0.230127 -2.76596,1.67834 -6.14657,3.218916 -3.38061,1.540657 -6.14656,3.209983 -6.14656,3.708756 0,0.498774 0.56548,1.999519 1.2566,3.335865 1.24243,2.402734 1.22399,2.448136 -1.61515,4.123281 -2.84488,1.678504 -2.85865,1.714072 -1.5046,3.881598 0.75152,1.203006 1.47517,2.337826 1.60704,2.521075 0.13178,0.18325 1.7453,-0.347567 3.58714,-1.178092 3.97658,-1.79324 3.68761,-2.084587 7.51831,7.60314 1.46977,3.717115 2.97666,6.759584 3.34865,6.761223 0.37191,0 3.2136,-1.504761 6.31458,-3.346929 3.1009,-1.842248 5.99643,-3.12811 6.43472,-2.857252 0.43829,0.270941 1.23702,1.871097 1.77513,3.555093 1.36369,4.268094 1.67463,4.4361 4.67391,2.537057 2.14949,-1.360932 2.56147,-2.05533 2.16096,-3.651143 -0.43747,-1.743084 -0.21931,-1.970343 1.8888,-1.970343 1.31094,0 2.79407,-0.410837 3.29571,-0.912397 1.46018,-1.46026 2.41593,-0.307492 6.75967,8.148954 6.28105,12.22798 5.17582,11.966382 12.59407,2.975676 l 6.41382,-7.774423 2.26341,1.610236 c 1.24447,0.886171 2.77087,2.224238 3.39175,2.97248 1.02558,1.235706 1.37298,1.068847 3.79203,-1.807172 l 2.66351,-3.164499 5.57993,5.53191 c 3.06927,3.042551 5.92464,5.53191 6.34506,5.53191 0.42051,0 2.19466,-1.382977 3.94241,-3.073283 l 3.17737,-3.073283 3.02526,3.483054 c 1.66416,1.91568 3.41036,3.483054 3.87995,3.483054 0.4696,0 4.14746,-3.411344 8.17305,-7.580765 l 7.31983,-7.580766 h 6.14656 6.14657 l 2.09852,-4.097711 c 1.43592,-2.803326 2.68089,-4.183025 3.94241,-4.366685 2.92642,-0.425998 2.97993,-2.372575 0.13768,-5.027646 -2.46518,-2.302831 -2.56599,-2.634828 -1.9528,-6.353091 0.35576,-2.157445 0.65678,-5.396767 0.66907,-7.19976 l 0.0221,-3.278169 -4.50749,-0.419442 c -2.47911,-0.230127 -4.94987,-0.701118 -5.49027,-1.046801 -1.79685,-1.149408 -11.92623,1.018117 -14.72136,3.150074 -1.59942,1.219971 -3.72015,2.004109 -5.42307,2.004109 -1.80103,0 -3.35193,0.613263 -4.35702,1.723907 -2.27365,2.512307 -7.65723,5.445202 -11.17741,6.088953 -2.43141,0.444519 -3.65171,1.382977 -5.94012,4.568292 -3.5578,4.952084 -5.82686,5.267034 -8.90293,1.234067 -1.44231,-1.891012 -2.97519,-2.895771 -4.80998,-3.153271 -1.48107,-0.207918 -3.3048,-0.646537 -4.05288,-0.973206 -0.95616,-0.417475 -1.51509,-0.108426 -1.87921,1.038851 -0.60523,1.907075 -6.00749,3.156959 -8.37785,1.938382 -0.82258,-0.422884 -3.15467,-1.021806 -5.18303,-1.331756 -5.10985,-0.78086 -6.97816,-2.241203 -8.69322,-6.798021 -0.8129,-2.159822 -2.13917,-4.409957 -2.94838,-4.99888 -0.80914,-0.589005 -1.47108,-1.995176 -1.47108,-3.126144 0,-1.130968 -0.42034,-2.840205 -0.93313,-3.798414 -0.89371,-1.669736 -0.97026,-1.629086 -1.84397,0.998858 -1.61974,4.871523 -2.94724,4.975687 -10.80769,0.848308 -4.77555,-2.507471 -7.552,-4.536412 -8.68207,-6.348174 z"
       id="path4137"
       inkscape:label="LHIN11_1" />
    <path
       style="fill:#40bf40;fill-opacity:1;stroke:#000000;stroke-width:0.819542;stroke-opacity:1"
       d="m 387.68034,242.84015 c -1.45559,-1.32946 -2.44166,-2.91184 -2.2026,-3.53477 0.23799,-0.62023 -0.26627,-1.7603 -1.12065,-2.53353 -1.26406,-1.14392 -1.98435,-1.24186 -3.8675,-0.5259 -1.68178,0.6394 -2.93945,0.6208 -4.60222,-0.068 -2.12614,-0.88068 -2.71023,-0.6285 -8.24967,3.56157 -4.61304,3.48937 -6.10977,4.25146 -6.61691,3.36938 -0.36043,-0.62695 -1.66965,-1.13998 -2.90937,-1.13998 -1.23964,0 -2.70572,-0.45173 -3.25785,-1.00386 -0.79225,-0.79225 -1.34298,-0.79225 -2.61147,0 -2.32266,1.45051 -3.82939,1.24096 -5.20573,-0.72406 -0.66563,-0.95034 -1.61212,-1.4796 -2.10319,-1.17604 -0.49115,0.30355 -1.88642,-0.22964 -3.10074,-1.18473 -1.21423,-0.95518 -3.1468,-1.64999 -4.29456,-1.5441 -1.14785,0.10588 -3.37775,-0.61032 -4.95537,-1.59156 -1.57761,-0.98123 -3.15278,-1.88035 -3.50042,-1.99804 -0.81307,-0.2752 -0.90355,-4.46544 -0.15949,-7.38514 0.47837,-1.87716 0.34986,-2.17826 -0.7498,-1.75628 -1.70153,0.65293 -1.71989,1.05278 0.75636,-16.46936 2.39798,-16.96763 1.50394,-15.36297 14.71709,-26.41712 4.05674,-3.39389 12.02154,-10.96998 17.69957,-16.83594 l 10.3237,-10.66527 2.66211,1.55467 c 1.46412,0.85511 3.36816,2.93002 4.23122,4.61107 0.86298,1.68104 2.71637,3.64967 4.11853,4.37472 l 2.54935,1.31831 -0.49632,5.45979 c -0.27299,3.00297 -0.55516,16.52361 -0.62703,30.04606 l -0.13072,24.58627 3.80645,0.24979 3.80636,0.2498 v 9.78959 c 0,5.38432 -0.28659,9.7896 -0.63686,9.7896 -0.35036,0 -1.82283,-1.08311 -3.27227,-2.407 z"
       id="path1402"
       inkscape:label="LHIN14_1" />
    <g
       id="g6845"
       transform="matrix(0.81954223,0,0,0.81954223,-528.74752,-687.0711)"
       inkscape:label="LHIN13_0"
       style="fill:#40bf40;fill-opacity:1;stroke:#000000;stroke-opacity:1">
      <path
         style="fill:#40bf40;fill-opacity:1;stroke:#000000;stroke-opacity:1"
         d="m 1164.8661,1162.7426 c -2.4705,-4.3435 -6.1167,-4.7572 -12.6766,-1.4381 -4.0044,2.026 -5.6516,2.4503 -5.957,1.5344 -0.9139,-2.7418 -3.3415,-4.1607 -6.1555,-3.5979 -2.1517,0.4303 -3.188,0.063 -4.3005,-1.5255 -0.8061,-1.1509 -2.888,-2.377 -4.6265,-2.7247 -1.7385,-0.3478 -3.1609,-0.746 -3.1609,-0.8851 0,-0.1391 0.7012,-1.931 1.5582,-3.9821 1.4108,-3.3766 1.4108,-3.8918 0,-5.4508 -0.857,-0.947 -1.5582,-2.5988 -1.5582,-3.6708 0,-1.0719 -0.9,-2.7196 -2,-3.6614 -1.785,-1.5284 -2,-2.95 -2,-13.2223 v -11.5098 h -4.6615 -4.6616 l 0.6374,-35.6425 c 0.3506,-19.6034 0.8523,-35.8574 1.115,-36.1201 0.9478,-0.9478 5.4788,0.8145 8.388,3.2624 2.0383,1.7151 4.1822,2.503 6.8271,2.5089 2.1206,0 6.275,0.2992 9.2319,0.6543 l 5.3764,0.6456 -0.5935,5.6785 c -0.3265,3.1232 -0.171,6.1011 0.3454,6.6176 0.5165,0.5164 1.2351,4.3042 1.597,8.4172 0.4356,4.9513 1.251,8.1539 2.4132,9.4781 0.9655,1.1 2.0559,2.992 2.4231,4.2043 0.3673,1.2123 2.5157,3.2373 4.7741,4.5 2.2584,1.2627 4.4846,3.0832 4.9471,4.0457 0.4625,0.9625 1.2244,2.5375 1.693,3.5 0.4687,0.9625 1.8187,1.8938 3,2.0696 1.1814,0.1757 2.1967,0.4007 2.2564,0.5 0.06,0.099 0.8979,10.7554 1.8627,23.6804 l 1.7542,23.5 4.2143,6.2414 c 3.1388,4.6486 5.024,6.4497 7.3873,7.0578 2.7557,0.7092 3.2138,1.3021 3.4834,4.5087 l 0.3103,3.6921 -10.8103,-0.01 -10.8104,-0.01 -1.623,-2.8533 z"
         id="path1394"
         inkscape:label="LHIN13_12" />
      <g
         id="g6750"
         style="fill:#40bf40;fill-opacity:1;stroke:#000000;stroke-opacity:1">
        <path
           style="fill:#40bf40;fill-opacity:1;stroke:#000000;stroke-opacity:1"
           d="m 679.42362,882.94387 c 4.8115,0.0333 11.8615,0.76918 15.8945,1.67773 5.5379,1.24754 12.4708,1.706 26.5,1.75 14.0609,0.0441 19.6183,0.41273 21.3809,1.41601 1.3493,0.76801 7.4341,1.67825 14.0352,2.09961 6.4091,0.4091 12.5806,1.2387 13.7148,1.84571 1.425,0.76262 2.3824,0.78355 3.0996,0.0664 1.9376,-1.93757 5.7065,-0.49926 7.2695,2.77344 1.2815,2.68322 2.1556,3.21187 6,3.62891 2.475,0.26849 5.2454,0.80027 6.1583,1.18164 1.163,0.48589 1.8574,0.0733 2.3183,-1.37891 0.8766,-2.7622 3.3021,-2.64772 3.7031,0.17578 0.2671,1.88105 0.8888,2.22371 3.793,2.08008 1.9107,-0.0945 3.6424,-0.67701 3.8477,-1.29297 0.2725,-0.81738 0.7503,-0.80707 1.7675,0.0371 1.2462,1.03423 4.3597,0.96887 8.2813,-0.17383 0.7537,-0.2196 2.1383,0.95157 3.0762,2.60157 0.9379,1.65 2.6829,3.14261 3.8789,3.31836 2.2915,0.33675 2.8608,1.63974 1.1718,2.68359 -1.6519,1.02096 0.085,5.75544 3.5254,9.60937 1.7739,1.98718 3.6736,4.41309 4.2207,5.39063 1.3298,2.37623 3.2578,1.03013 3.2578,-2.27539 0,-4.72099 3.1514,-0.12043 3.7129,5.41992 0.5642,5.56752 3.1705,12.36288 4.7286,12.33008 0.5816,-0.0122 2.1835,-0.90102 3.5585,-1.97656 3.3246,-2.60054 4.4651,-2.49616 6.9278,0.63476 2.6308,3.34403 2.6616,6.97945 0.072,8.36524 -2.8697,1.53583 -2.468,2.95562 1.0352,3.65625 1.6697,0.33395 3.584,1.38936 4.2539,2.3457 1.1385,1.62552 1.7255,1.54043 9.0059,-1.30273 6.059,-2.36617 7.6516,-3.39209 7.1757,-4.6211 -2.5095,-6.48103 -2.966,-6.048 15.1954,-14.38086 9.2581,-4.24782 17.3421,-7.71794 17.9629,-7.71094 0.6208,0.007 1.6876,1.36368 2.371,3.01368 0.6835,1.65 1.3978,3 1.5879,3 0.1902,0 6.4695,-2.91079 13.9532,-6.4668 l 13.6054,-6.46484 4.0606,8.91015 4.0586,8.91211 6.8359,-3.44336 6.834,-3.4414 -2.1445,-3.63672 c -2.3024,-3.90235 -2.3244,-3.85011 2.7187,-6.88282 1.5727,-0.94603 1.5678,-1.25602 -0.092,-4.73632 -0.977,-2.04871 -1.5837,-3.91811 -1.3476,-4.15235 0.2361,-0.23423 3.8753,-1.9955 8.0879,-3.91406 l 7.6582,-3.48828 -4.4629,-8.59766 c -1.9781,-3.81029 -3.4009,-7.02466 -3.6485,-8.14453 z"
           id="path4139"
           inkscape:label="LHIN13_9" />
        <path
           style="fill:#40bf40;fill-opacity:1;stroke:#000000;stroke-opacity:1"
           d="m 768.93483,936.0041 c 0,-0.19039 0.675,-0.90637 1.5,-1.59106 0.8646,-0.71755 1.5,-0.81474 1.5,-0.22943 0,0.5585 -0.675,1.27447 -1.5,1.59106 -0.825,0.31658 -1.5,0.41982 -1.5,0.22943 z"
           id="path1430"
           inkscape:label="LHIN13_11" />
        <path
           style="fill:#40bf40;fill-opacity:1;stroke:#000000;stroke-opacity:1"
           d="m 771.71233,936.85634 c 2.5134,-1.76043 3.0022,-5.4433 0.7225,-5.4433 -1.9383,0 -5.5,3.56173 -5.5,5.5 0,1.93489 1.9675,1.91154 4.7775,-0.0567 z"
           id="path1428"
           inkscape:label="LHIN13_8" />
        <path
           style="fill:#40bf40;fill-opacity:1;stroke:#000000;stroke-opacity:1"
           d="m 761.66383,899.32117 c -2.3822,-1.38687 -1.2506,-2.90813 2.1634,-2.90813 3.4269,0 4.4352,0.90039 2.9765,2.65799 -1.318,1.58812 -2.7241,1.65655 -5.1399,0.25014 z"
           id="path1388"
           inkscape:label="LHIN13_7" />
        <path
           style="fill:#40bf40;fill-opacity:1;stroke:#000000;stroke-opacity:1"
           d="m 724.18483,907.75076 c -0.6875,-0.27741 -1.25,-0.90105 -1.25,-1.38587 0,-1.35954 3.981,-3.17314 5.6008,-2.55155 1.1926,0.45766 1.2243,0.907 0.1813,2.57701 -1.2647,2.02507 -2.1937,2.30395 -4.5321,1.36041 z"
           id="path1386"
           inkscape:label="LHIN13_6" />
        <path
           style="fill:#40bf40;fill-opacity:1;stroke:#000000;stroke-opacity:1"
           d="m 689.68483,909.33294 c -4.1887,-2.4397 -0.5335,-7.68965 3.936,-5.65321 2.5777,1.17449 2.7908,1.97397 1.2788,4.79905 -1.1485,2.14603 -2.5911,2.38232 -5.2148,0.85416 z"
           id="path1384"
           inkscape:label="LHIN13_5" />
        <path
           style="fill:#40bf40;fill-opacity:1;stroke:#000000;stroke-opacity:1"
           d="m 729.18483,911.70731 c -1.2375,-0.23836 -2.25,-0.85207 -2.25,-1.36382 0,-1.37497 2.2269,-1.07344 4.4411,0.60135 1.9671,1.48782 1.8274,1.53645 -2.1911,0.76247 z"
           id="path1382"
           inkscape:label="LHIN13_10" />
        <path
           style="fill:#40bf40;fill-opacity:1;stroke:#000000;stroke-opacity:1"
           d="m 724.36423,915.29876 c -0.4087,-0.66124 -2.2373,-0.90657 -4.4976,-0.60339 -2.8498,0.38223 -4.2165,0.0605 -5.4275,-1.27765 -0.979,-1.08177 -3.8313,-2.06498 -7.2182,-2.48814 -8.5575,-1.06919 -9.6643,-1.91112 -7.2518,-5.51654 0.8772,-1.3109 1.1734,-1.27858 2.3496,0.25637 1.6129,2.10484 6.714,1.84651 9.3559,-0.47381 2.2877,-2.0093 6.2602,-3.22065 6.2602,-1.90897 0,0.55461 -0.45,1.28649 -1,1.62641 -1.8326,1.13263 -1.0309,3.53774 1.5,4.5 1.375,0.52277 2.5,1.38154 2.5,1.90837 0,0.52682 1.2566,0.92214 2.7924,0.87847 3.1074,-0.0883 7.2076,1.75957 7.2076,3.24834 0,1.34432 -5.7279,1.21402 -6.5706,-0.14946 z"
           id="path1380"
           inkscape:label="LHIN13_4" />
        <path
           style="fill:#40bf40;fill-opacity:1;stroke:#000000;stroke-opacity:1"
           d="m 749.48683,925.16326 c -4.3827,-2.9969 -7.0043,-4.09131 -9.962,-4.15873 -3.2852,-0.0749 -4.2931,-0.58864 -5.5503,-2.82914 -1.273,-2.26855 -1.3165,-3.08944 -0.2541,-4.79068 1.4524,-2.32563 0.8444,-3.97167 -1.467,-3.97167 -1.2764,0 -1.3349,-0.27545 -0.3186,-1.5 0.6847,-0.825 1.7566,-1.5 2.3819,-1.5 0.6254,0 1.6991,-0.9 2.386,-2 1.8401,-2.94641 6.0336,-2.63903 6.8215,0.5 0.4392,1.75018 1.3098,2.5 2.9024,2.5 1.434,0 2.4683,0.73936 2.798,2 0.2876,1.1 1.0292,2 1.648,2 1.1642,0 1.5063,-0.70774 2.4547,-5.07856 0.6324,-2.9144 4.8358,-5.30115 7.7224,-4.38497 2.2748,0.72199 2.3942,1.7961 0.3851,3.46353 -2.3191,1.92471 -1.7883,3 1.4809,3 2.9475,0 2.9741,0.0493 2.3778,4.39945 -0.528,3.8526 -0.3264,4.54745 1.6219,5.59017 2.1582,1.15503 2.0759,1.29111 -2.7473,4.53922 -2.7347,1.84167 -5.2418,4.05109 -5.5714,4.90983 -0.8838,2.30318 -2.5133,1.8223 -9.1099,-2.68845 z"
           id="path1378"
           inkscape:label="LHIN13_3" />
        <path
           style="fill:#40bf40;fill-opacity:1;stroke:#000000;stroke-opacity:1"
           d="m 763.93483,930.03073 c 0,-0.83678 1.532,-3.00926 3.4044,-4.82774 3.1522,-3.06132 3.365,-3.65626 2.8722,-8.02855 -0.5749,-5.09997 1.453,-9.7614 4.2465,-9.7614 2.1096,0 1.8238,1.76644 -0.5231,3.23207 -2.9505,1.84263 -2.4307,3.02145 1,2.26793 3.3557,-0.73703 4.2083,1.25235 1.5,3.5 -0.825,0.68469 -1.5,2.03469 -1.5,3 0,0.96531 -0.7118,2.34583 -1.5817,3.06782 -0.87,0.72199 -2.3342,2.91459 -3.2539,4.87245 -1.7592,3.74491 -6.1644,5.65826 -6.1644,2.67742 z"
           id="path1376"
           inkscape:label="LHIN13_2" />
        <path
           style="fill:#40bf40;fill-opacity:1;stroke:#000000;stroke-opacity:1"
           d="m 847.93483,944.41304 c 0,-0.55 0.675,-1 1.5,-1 0.825,0 1.5,0.45 1.5,1 0,0.55 -0.675,1 -1.5,1 -0.825,0 -1.5,-0.45 -1.5,-1 z"
           id="path1374"
           inkscape:label="LHIN13_1" />
      </g>
    </g>
    <g
       id="g6577"
       transform="matrix(0.81954223,0,0,0.81954223,-528.74752,-687.0711)"
       inkscape:label="LHIN10_0"
       style="fill:#40bf40;fill-opacity:1;stroke:#000000;stroke-opacity:1">
      <path
         style="fill:#40bf40;fill-opacity:1;stroke:#000000;stroke-opacity:1"
         d="m 1041.9348,1008.6351 c 0,-1.2223 -0.5625,-2.2527 -1.25,-2.2899 -0.6875,-0.037 -0.2228,-0.5626 1.0326,-1.1674 3.6274,-1.7476 5.2818,0.6151 2.4285,3.4684 l -2.2111,2.2111 z"
         id="path1422"
         inkscape:label="LHIN10_11" />
      <path
         style="fill:#40bf40;fill-opacity:1;stroke:#000000;stroke-opacity:1"
         d="m 1046.3958,1008.8321 c 2.3121,-3.5287 1.3328,-5.4193 -2.8072,-5.4193 -4.202,0 -6.9085,2.6049 -4.5283,4.3583 0.8525,0.6279 1.3606,1.7042 1.129,2.3917 -0.8339,2.4752 4.4559,1.341 6.2065,-1.3307 z"
         id="path1420"
         inkscape:label="LHIN10_10" />
      <path
         style="fill:#40bf40;fill-opacity:1;stroke:#000000;stroke-opacity:1"
         d="m 1012.9348,1010.5945 c 0,-1.2085 1.8972,-2.6176 2.5907,-1.9241 0.2517,0.2517 -0.2282,1.0269 -1.0665,1.7226 -0.9504,0.7887 -1.5242,0.8646 -1.5242,0.2015 z"
         id="path1370"
         inkscape:label="LHIN10_9" />
      <path
         style="fill:#40bf40;fill-opacity:1;stroke:#000000;stroke-opacity:1"
         d="m 1025.9348,1010.413 c 0.892,-1.6666 5,-2.9577 5,-1.5714 0,1.0322 -3.2752,3.5714 -4.6066,3.5714 -1.1539,0 -1.2372,-0.4234 -0.3934,-2 z"
         id="path1368"
         inkscape:label="LHIN10_8" />
      <path
         style="fill:#40bf40;fill-opacity:1;stroke:#000000;stroke-opacity:1"
         d="m 1014.9348,1014.4387 c 0,-2.0184 5.1815,-5.5108 6.3872,-4.3051 0.6992,0.6992 -4.2545,6.2794 -5.5743,6.2794 -0.4471,0 -0.8129,-0.8884 -0.8129,-1.9743 z"
         id="path1364"
         inkscape:label="LHIN10_7" />
      <path
         style="fill:#40bf40;fill-opacity:1;stroke:#000000;stroke-opacity:1"
         d="m 999.73833,1014.664 c -0.7126,-2.603 -0.4922,-2.7955 4.19647,-3.6643 l 3.5,-0.6485 -3.1601,1.4448 c -1.738,0.7947 -3.3312,2.2711 -3.5404,3.281 -0.3272,1.5796 -0.4664,1.5219 -0.99597,-0.413 z"
         id="path1362"
         inkscape:label="LHIN10_6" />
      <path
         style="fill:#40bf40;fill-opacity:1;stroke:#000000;stroke-opacity:1"
         d="m 1010.6696,1016.0199 c 0.26,-1.3599 1.0534,-2.6953 1.7632,-2.9677 0.9504,-0.3647 1.1064,0.1935 0.5918,2.1176 -0.9112,3.4069 -2.987,4.1562 -2.355,0.8501 z"
         id="path1360"
         inkscape:label="LHIN10_5" />
      <path
         style="fill:#40bf40;fill-opacity:1;stroke:#000000;stroke-opacity:1"
         d="m 985.93483,1018.0355 c 0,-0.2077 0.7875,-0.9952 1.75,-1.75 1.5861,-1.2439 1.6214,-1.2085 0.3776,0.3775 -1.3064,1.6658 -2.1276,2.1955 -2.1276,1.3725 z"
         id="path1358"
         inkscape:label="LHIN10_4" />
      <path
         style="fill:#40bf40;fill-opacity:1;stroke:#000000;stroke-opacity:1"
         d="m 981.66573,1020.7866 c -0.31,-0.5016 -1.5033,-3.3783 -2.6517,-6.3928 -1.9511,-5.1211 -1.9768,-5.5628 -0.3925,-6.7308 0.9326,-0.6875 2.0596,-1.25 2.5044,-1.25 0.4449,0 0.8089,-0.4487 0.8089,-0.9972 0,-0.5484 -7.2411,-16.55737 -16.0912,-35.57538 -8.8502,-19.01801 -15.9377,-34.71758 -15.75,-34.88794 1.9003,-1.72486 21.2725,-10.48276 21.8151,-9.86234 0.3959,0.45259 2.149,4.4229 3.8959,8.8229 4.6842,11.79844 3.8498,11.336 11.9344,6.61437 3.8746,-2.2629 7.4676,-4.11437 7.9844,-4.11437 0.5168,0 1.7131,2.025 2.6583,4.5 0.9452,2.475 2.13757,4.5 2.64977,4.5 2.4441,0 7.8794,-4.6494 7.8909,-6.75 0.01,-1.2375 0.5749,-2.25615 1.2624,-2.26366 0.6875,-0.007 2.2115,-0.27165 3.3867,-0.58698 1.8814,-0.50486 2.8967,0.8693 8.5,11.50481 3.4998,6.64298 6.6499,11.96963 7.0002,11.83699 0.3502,-0.13264 4.1013,-4.40366 8.3356,-9.49116 4.2343,-5.0875 7.9787,-9.25 8.321,-9.25 0.3422,0 2.3564,1.6875 4.476,3.75 3.2685,3.18038 3.9904,3.50848 4.7524,2.15999 0.4941,-0.87451 1.7539,-2.64647 2.7995,-3.9377 l 1.901,-2.34769 7.1809,6.4377 c 3.9495,3.54073 7.5155,6.55553 7.9243,6.69953 0.4089,0.14401 2.4762,-1.51272 4.5941,-3.68162 l 3.8507,-3.94345 3.3747,4.03931 3.3748,4.03932 -4.6936,6.6423 c -7.1607,10.13358 -12.8476,17.42949 -15.3088,19.63995 -1.2233,1.0987 -2.8482,3.20431 -3.6109,4.67913 -0.7627,1.47482 -2.3561,2.98917 -3.5409,3.36523 -1.1849,0.37605 -5.1273,2.59873 -8.761,4.93928 -9.6437,6.21176 -14.5805,8.50748 -19.2654,8.95868 -2.4428,0.2353 -5.8509,1.5847 -8.2515,3.267 -3.4426,2.4126 -4.5225,2.712 -6.8242,1.8921 -2.0135,-0.7174 -4.1456,-0.5293 -8.0879,0.7134 -2.9444,0.9281 -6.2176,1.6875 -7.2738,1.6875 -1.6854,0 -18.26237,5.4465 -18.89747,6.209 -0.1334,0.1601 -0.9106,1.5928 -1.7272,3.1838 -0.8166,1.591 -1.7383,2.4824 -2.0483,1.9808 z"
         id="path1350"
         inkscape:label="LHIN10_3" />
      <path
         style="fill:#40bf40;fill-opacity:1;stroke:#000000;stroke-opacity:1"
         d="m 1015.6681,1026.289 c 0.6784,-0.6835 1.4853,-0.9907 1.7932,-0.6828 0.3079,0.3079 -0.2471,0.867 -1.2334,1.2426 -1.4252,0.5426 -1.54,0.4278 -0.5598,-0.5598 z"
         id="path1348"
         inkscape:label="LHIN10_2" />
      <path
         style="fill:#40bf40;fill-opacity:1;stroke:#000000;stroke-opacity:1"
         d="m 1006.1573,1029.8563 c -1.2224,-0.8561 -2.2225,-2.2203 -2.2225,-3.0313 0,-2.4003 -2.64,-2.7149 -7.43057,-0.8853 -5.1198,1.9553 -7.5694,1.4612 -7.5694,-1.5267 0,-1.1345 -0.6402,-2.3084 -1.4227,-2.6087 -1.9792,-0.7595 1.1926,-3.8504 6.0218,-5.8682 4.4765,-1.8704 4.0659,-1.9122 4.6907,0.4769 0.7221,2.7616 3.15827,2.5068 4.51567,-0.4724 1.0494,-2.3033 5.6041,-4.4513 6.8329,-3.2225 0.2999,0.2999 -0.032,2.1426 -0.7384,4.0949 -1.3593,3.7593 -0.6622,5.7623 1.3167,3.7834 0.6508,-0.6509 2.0091,-1.1834 3.0185,-1.1834 1.5045,0 1.6487,0.3486 0.8,1.9343 -0.5694,1.0638 -1.0352,3.1517 -1.0352,4.6398 0,1.488 -0.7875,3.3033 -1.75,4.0339 -2.2371,1.6982 -2.3742,1.6938 -5.0275,-0.1647 z"
         id="path1346"
         inkscape:label="LHIN10_1" />
    </g>
    <path
       style="fill:#40bf40;fill-opacity:1;stroke:#000000;stroke-width:0.819542;stroke-opacity:1"
       d="m 210.11302,174.76258 c -0.19669,-0.31815 -0.60392,-1.89175 -0.90511,-3.49683 -0.5363,-2.85913 -0.4782,-2.93912 2.86135,-3.9397 2.03189,-0.60876 3.25031,-1.41363 3.01633,-1.99263 -0.21587,-0.53426 -1.98428,-4.97954 -3.92979,-9.87844 l -3.53731,-8.90703 1.9447,-1.57475 c 1.06966,-0.86617 2.47739,-1.8729 3.12835,-2.23719 1.03058,-0.57671 1.02845,-0.97001 -0.0164,-3.04058 -1.96247,-3.89028 -2.45666,-6.88579 -1.13597,-6.88579 1.68138,0 3.30448,-2.16409 2.15556,-2.87414 -0.61424,-0.37961 -0.47148,-0.88084 0.44092,-1.54803 1.22759,-0.89765 1.08138,-1.64794 -1.62196,-8.32163 l -2.97117,-7.33499 2.92216,-2.4769 c 2.70572,-2.29341 2.83144,-2.59705 1.69703,-4.09771 -1.78611,-2.36291 -1.61614,-2.68277 2.00091,-3.76654 3.73351,-1.11851 3.91364,-1.71915 1.63605,-5.454872 -0.89985,-1.475832 -1.63605,-2.800376 -1.63605,-2.94355 0,-0.143092 1.47518,-0.702184 3.27817,-1.242426 1.80299,-0.540161 3.27817,-1.159898 3.27817,-1.377159 0,-0.217343 -1.48944,-3.357501 -3.30997,-6.97832 l -3.30997,-6.583137 12.8242,-6.148616 c 7.05331,-3.381759 12.93557,-6.035272 13.07162,-5.896688 0.13612,0.138585 7.63682,16.110151 16.66834,35.492328 17.22588,36.96816 16.95592,36.18328 12.91181,37.53135 -0.59704,0.19898 -0.2448,2.16744 1.03786,5.8008 1.06787,3.02477 1.80341,5.62411 1.6345,5.7763 -1.966,1.77201 -10.82656,5.09353 -16.89413,6.33301 -4.20236,0.85855 -9.38089,2.23809 -11.50784,3.06574 -2.12696,0.82766 -5.34235,1.76497 -7.14535,2.08303 -1.80299,0.31799 -7.38768,1.85184 -12.41041,3.40856 -8.18395,2.5364 -9.4794,3.20695 -12.47581,6.45767 -1.83897,1.99509 -3.50452,3.36709 -3.70113,3.04886 z"
       id="path1340"
       inkscape:label="LHIN9_1" />
    <path
       style="fill:#40bf40;fill-opacity:1;stroke:#000000;stroke-width:0.819542;stroke-opacity:1"
       d="m 207.85768,138.89949 c -0.38695,0 -0.72851,0.0754 -0.98281,0.23529 -0.52558,0.33011 -1.63282,0.48837 -2.46023,0.35208 -2.67679,-0.441 -4.63879,2.23054 -4.67075,6.35792 -0.0284,3.67835 -0.0564,3.7172 -1.2005,1.71588 -0.20214,-0.35363 -0.39473,-0.87691 -0.56343,-1.5014 l -1.20691,0.4882 c -1.32019,1.12802 -7.08519,4.29137 -8.03696,4.29137 -0.24037,0 -0.43698,-0.73759 -0.43698,-1.63909 0,-1.75111 -1.29471,-2.09048 -3.25096,-0.85314 -0.66104,0.41805 -1.58302,0.4655 -2.04885,0.10564 -0.91338,-0.70555 -4.53469,-1.73186 -4.53469,-1.28537 0,0.14916 0.77936,3.65516 1.73192,7.79212 1.69842,7.37654 1.77349,7.51398 3.89282,7.08609 1.1885,-0.23988 2.72179,-0.65465 3.40782,-0.92034 0.84421,-0.327 2.24008,0.84773 4.31861,3.63188 1.68916,2.26251 3.61764,4.11214 4.28499,4.11214 0.79569,0 1.21331,0.82814 1.21331,2.40421 0,1.68358 0.4909,2.55844 1.63908,2.92281 0.9015,0.28619 1.63909,0.86503 1.63909,1.28537 0,1.43354 1.79053,0.76947 2.20571,-0.81798 0.50074,-1.91495 2.66637,-2.88799 3.832,-1.72227 1.54664,1.54664 2.05189,0.87707 1.30455,-1.72874 -0.90838,-3.16745 -0.59923,-3.71319 2.49224,-4.39226 1.34192,-0.29471 2.62871,-0.84167 2.86039,-1.21653 0.23169,-0.37477 -1.26389,-4.99093 -3.32299,-10.25706 -3.55755,-9.09839 -3.66937,-9.63093 -2.25533,-10.70683 0.81839,-0.62277 2.13401,-1.3506 2.92282,-1.61835 0.78881,-0.26782 1.4342,-1.02533 1.4342,-1.68227 0,-1.15998 -2.5314,-2.45224 -4.20816,-2.43937 z"
       id="path3875"
       inkscape:label="LHIN8_1" />
    <g
       id="g6737"
       transform="matrix(0.81954223,0,0,0.81954223,-528.74752,-687.0711)"
       inkscape:label="LHIN12_0"
       style="fill:#40bf40;fill-opacity:1;stroke:#000000;stroke-opacity:1">
      <path
         style="fill:#40bf40;fill-opacity:1;stroke:#000000;stroke-opacity:1"
         d="m 854.78183,976.54574 c 3.3801,-2.93151 2.7499,-4.33103 -1.597,-3.54667 -4.8371,0.8728 -5.25,1.14596 -5.25,3.47299 0,2.55913 3.9325,2.60145 6.847,0.0737 z"
         id="path1424"
         inkscape:label="LHIN12_3" />
      <path
         style="fill:#40bf40;fill-opacity:1;stroke:#000000;stroke-opacity:1"
         d="m 862.93483,978.5945 c 0,-1.20855 1.8972,-2.61759 2.5907,-1.9241 0.2517,0.2517 -0.2282,1.02686 -1.0665,1.72258 -0.9504,0.78875 -1.5242,0.86461 -1.5242,0.20152 z"
         id="path1372"
         inkscape:label="LHIN12_2" />
      <path
         style="fill:#40bf40;fill-opacity:1;stroke:#000000;stroke-opacity:1"
         d="m 908.68359,924.72656 c -0.0626,1.4e-4 -0.12247,0.0114 -0.17773,0.0332 -0.5895,0.23298 -8.17883,3.69871 -16.86524,7.70312 -12.4723,5.74971 -15.66408,7.6141 -15.17968,8.86523 2.4089,6.22124 2.20881,6.515 -6.89649,10.03516 -4.7026,1.81807 -9.35383,4.19414 -10.33593,5.2793 -2.0044,2.21489 -2.32497,1.83638 7.70703,9.10156 2.5956,1.87974 4.63747,4.21577 4.82617,5.52148 0.26,1.79866 0.61133,2.02849 1.70703,1.11915 2.0687,-1.71686 3.4668,-0.26936 3.4668,3.58789 0,6.31975 -6.24735,9.7822 -9.43555,5.23046 -1.2102,-1.72773 -1.81016,-1.94569 -2.75586,-1 -0.6651,0.6651 -1.56976,1.20899 -2.00976,1.20899 -1.24711,0 -0.93901,-4.45937 0.40039,-5.79883 2.7469,-2.74686 -1.23754,-1.00932 -5.11524,2.23047 l -4.10547,3.42969 4,2.24804 c 2.1999,1.23644 4.24508,3.02568 4.54688,3.97657 0.5674,1.78771 -1.13738,10.0852 -2.70508,13.16406 -1.007,1.9775 -5.79372,2.3781 -7.54102,0.6309 -0.6157,-0.6158 -2.98276,-1.4606 -5.25976,-1.87699 -3.2536,-0.59496 -4.02981,-0.47242 -3.62891,0.57226 0.2806,0.73113 -0.63661,2.16523 -2.03711,3.18553 -2.3847,1.7371 -2.50114,2.213 -1.83984,7.5059 1.1099,8.8835 1.44713,9.0474 11.98633,5.7949 4.95,-1.5277 9.7875,-3.1156 10.75,-3.5273 1.3535,-0.579 1.75,-0.2659 1.75,1.3828 0,2.8196 4.48917,4.6363 7.76757,3.1426 3.3392,-1.5215 4.23243,-1.3242 4.23243,0.9394 0,2.554 1.41259,2.5263 5.68359,-0.1133 1.14745,-0.7092 2.25855,-1.2478 3.01953,-1.4922 l 1.91797,-1.0058 c -0.34581,-1.5517 -0.57484,-3.4372 -0.58594,-5.1172 -0.0351,-5.1677 -0.0649,-5.2157 -2.46289,-4.1231 -2.6205,1.194 -7.57226,0.4319 -7.57226,-1.166 0,-0.5395 1.18326,-0.9824 2.63086,-0.9824 3.1095,0 8.98016,-3.4063 10.38086,-6.02344 0.543,-1.01468 0.98828,-4.13757 0.98828,-6.9414 0,-5.47899 2.18883,-12.03516 4.01953,-12.03516 0.7762,0 0.91451,1.6784 0.44531,5.43359 l -0.67969,5.4336 3.85742,0.3164 c 3.121,0.2563 3.91719,0.74573 4.17579,2.56641 0.3605,2.53878 2.94076,3.04138 3.82226,0.74414 0.3181,-0.82878 -0.82391,-4.99128 -2.53711,-9.25 -1.7133,-4.25872 -3.11914,-8.19414 -3.11914,-8.74414 -0.002,-0.55 1.43822,-2.18355 3.19922,-3.63086 3.166,-2.60222 3.18254,-2.65972 1.46484,-5.28125 l -1.73828,-2.65234 3.51368,-1.4668 c 1.9317,-0.80712 3.98565,-1.46875 4.56445,-1.46875 0.5789,0 0.0911,-1.88012 -1.08203,-4.17969 -2.0436,-4.00562 -2.05633,-4.23635 -0.32813,-5.5 0.9921,-0.72543 2.36534,-1.32031 3.05274,-1.32031 2.5998,0 2.29947,-2.10765 -1.35743,-9.49805 l -3.77148,-7.61718 2.31641,-1.74805 c 2.08,-1.56897 2.18901,-2.025 1.07031,-4.48047 -0.62087,-1.36249 -1.53583,-2.34316 -2.14063,-2.3418 z"
         id="path1324"
         inkscape:label="LHIN12_1" />
    </g>
    <path
       style="fill:#40bf40;fill-opacity:1;stroke:#000000;stroke-width:0.819542;stroke-opacity:1"
       d="m 201.13772,179.17344 c -0.29545,-0.76988 0.14374,-1.60041 1.12359,-2.12483 0.8847,-0.47345 1.60852,-1.40109 1.60852,-2.06131 0,-1.74194 2.221,-1.49632 4.23977,0.10391 0.71443,0.56631 0.68941,0.56262 1.1358,0.52181 0.19984,-0.018 -0.2083,0.87338 -0.35185,1.00975 -0.33677,0.31987 -0.78526,0.77455 -1.16665,1.41822 -0.87673,-0.47918 -1.60606,-0.0385 -2.3713,0.42543 -0.54095,0.37059 -1.67378,1.05729 -2.4044,1.38232 -0.85323,0.37953 -1.50197,0.13883 -1.81348,-0.67293 z"
       id="path1322"
       sodipodi:nodetypes="csssssccscc"
       inkscape:label="LHIN7_1" />
    <path
       style="fill:#40bf40;fill-opacity:1;stroke:#000000;stroke-width:0.819542;stroke-opacity:1"
       d="m 182.12532,175.01606 c -3.87734,-3.38061 -7.30146,-6.14984 -7.6092,-6.15394 -0.30774,-0.008 -1.55607,1.19456 -2.77407,2.66351 l -2.21457,2.67089 -2.4846,-2.46117 c -3.25432,-3.2235 -5.21533,-11.53366 -3.0887,-13.08866 1.18277,-0.86495 1.19834,-1.16998 0.13662,-2.68572 -0.65875,-0.94051 -0.97214,-2.29784 -0.69644,-3.01633 0.27569,-0.71849 0.0631,-1.83438 -0.47255,-2.47977 -0.8161,-0.98337 0.17563,-1.5241 6.12149,-3.33767 3.90249,-1.19038 7.2777,-1.98198 7.50053,-1.75914 0.22283,0.22283 1.39142,4.40315 2.59688,9.28975 2.32086,9.4081 2.12032,9.18101 7.12805,8.07307 2.2512,-0.49812 2.72408,-0.20513 5.17304,3.20498 1.48247,2.06426 3.22563,3.75318 3.87381,3.75318 0.75693,0 1.17834,0.85961 1.17834,2.40347 0,1.68358 0.4909,2.55918 1.63908,2.92355 2.33086,0.7398 2.04976,1.65228 -1.2948,4.20327 -2.40511,1.83446 -3.06369,2.02787 -3.65384,1.07303 -0.57335,-0.92773 -0.92707,-0.95772 -1.73743,-0.14728 -0.55967,0.55967 -1.29988,1.01755 -1.64482,1.01755 -0.34495,0 -3.79956,-2.76596 -7.67682,-6.14657 z"
       id="path1318"
       inkscape:label="LHIN5_1" />
    <path
       id="path1316"
       style="fill:#40bf40;fill-opacity:1;stroke:#000000;stroke-width:0.819542;stroke-opacity:1"
       d="m 182.33502,177.06418 c -0.19841,0 -1.74025,2.07901 -3.42703,4.61951 l -3.06688,4.61952 3.79998,3.78079 3.8016,3.78079 1.49182,-1.95444 c 0.98607,-1.2934 1.68586,-1.64023 2.06646,-1.02443 0.3165,0.51205 1.28821,0.93002 2.1593,0.93002 0.87101,0 2.0316,0.7189 2.58028,1.59745 0.74087,1.18621 1.27108,1.37249 2.05686,0.7203 0.43122,-0.35782 0.71888,-0.72153 0.87396,-1.0868 0.61755,-0.61769 1.43651,-1.95157 2.06646,-3.61918 0.39805,-0.42936 0.57625,-1.23825 0.57625,-2.44895 0,-1.25579 0.73759,-2.95216 1.63908,-3.76801 3.59599,-3.25432 1.28318,-5.48217 -2.43942,-2.3498 -1.89675,1.59598 -2.81813,1.9279 -3.49106,1.25497 -0.66481,-0.66457 -1.21132,-0.66834 -1.99923,-0.0147 -0.82569,0.68522 -1.94698,0.19275 -4.70597,-2.06804 -1.99206,-1.63236 -3.78405,-2.96928 -3.98246,-2.96928 z"
       inkscape:label="LHIN6_1" />
    <path
       style="fill:#40bf40;fill-opacity:1;stroke:#000000;stroke-width:0.819542;stroke-opacity:1"
       d="m 161.23634,200.37647 c -0.88429,-2.32595 -1.95756,-2.46437 -6.00282,-0.77414 -3.86963,1.61687 -3.8144,1.63703 -3.8144,-1.39511 0,-1.82143 -0.77266,-3.42175 -2.52492,-5.22966 l -2.52501,-2.60508 1.79775,-3.52395 c 1.93297,-3.78899 1.85175,-4.00969 -2.37151,-6.44062 -0.91273,-0.52533 -0.79873,-1.36036 0.62457,-4.57804 0.95747,-2.1645 1.56524,-4.11107 1.3506,-4.32571 -0.21472,-0.21472 -1.90297,-0.008 -3.75186,0.46296 -3.72121,0.94452 -3.56665,1.08966 -4.77252,-4.48183 -0.8093,-3.73908 -0.2934,-4.35259 3.66048,-4.35259 2.64909,0 3.1014,-1.4787 1.57205,-5.1391 -0.6903,-1.65204 -1.25505,-3.17475 -1.25505,-3.38381 0,-0.20915 2.85816,-0.99239 6.35145,-1.74055 3.4933,-0.74816 7.3254,-2.04541 8.51578,-2.88274 2.08533,-1.46681 2.21326,-1.46837 3.50281,-0.0434 0.73619,0.81348 1.11433,2.06311 0.84036,2.7771 -0.27389,0.7139 -0.13301,1.95043 0.31323,2.74784 0.57458,1.02664 0.50147,1.69891 -0.25054,2.30349 -0.83831,0.67399 -0.87691,1.9242 -0.18325,5.93775 0.68694,3.97478 1.54435,5.85235 3.92963,8.60519 l 3.05099,3.52116 2.74096,-3.0532 2.74096,-3.05321 3.43994,3.12623 3.43987,3.12631 -3.59263,5.35546 -3.59271,5.35546 2.37135,2.27186 c 1.89019,1.81094 2.20629,2.58016 1.55811,3.79136 -0.45419,0.84864 -1.70498,1.51943 -2.83324,1.51943 -1.45608,0 -2.02001,0.446 -2.02001,1.59746 0,2.1549 -4.61156,5.4529 -8.43784,6.03437 -2.75473,0.41862 -3.19802,0.24348 -3.87258,-1.53066 z"
       id="path1312"
       inkscape:label="LHIN3_1" />
    <path
       style="fill:#40bf40;fill-opacity:1;stroke:#000000;stroke-width:0.819542;stroke-opacity:1"
       d="m 120.43718,92.678535 c -0.95886,0.0082 -1.93907,0.355681 -2.20892,0.792333 -0.27856,0.450749 -2.79099,0.849538 -5.58154,0.885106 -4.38692,0.05573 -4.7674,0.176693 -2.81877,0.888384 1.23956,0.452715 2.25374,1.339542 2.25374,1.972064 0,1.806517 4.27383,7.376868 6.76122,8.811638 1.38593,0.79947 2.25375,1.99698 2.25375,3.11016 0,0.9955 0.88353,3.31841 1.96401,5.16214 1.08049,1.84372 2.23038,5.47487 2.55467,8.07052 0.53352,4.27031 0.3288,5.29957 -2.1513,10.81099 -1.73751,3.86119 -3.42313,6.40112 -4.60352,6.9389 -1.02418,0.46665 -1.86269,1.13286 -1.86318,1.48059 -5.8e-4,0.34773 -0.92256,1.7044 -2.04886,3.01411 -1.12638,1.30963 -2.04725,3.25858 -2.04725,4.32981 0,2.61942 -2.20001,7.80507 -3.8336,9.03733 -1.1213,0.84585 -1.19477,1.6522 -0.48661,5.32703 0.4619,2.38167 0.66239,6.54257 0.453,9.24706 -0.22931,2.9619 0.13813,7.13764 0.92358,10.50038 1.85159,7.92653 1.71473,16.21546 -0.33454,20.23245 -0.90149,1.7671 -1.63908,3.89266 -1.63908,4.72196 0,0.82929 -0.41057,1.91846 -0.91238,2.42027 -0.53803,0.53803 -0.71846,2.20203 -0.43859,4.05608 0.26111,1.7294 0.91637,6.00593 1.45661,9.50316 0.72447,4.6891 0.74369,6.8408 0.0737,8.19543 -0.49976,1.01025 -1.14449,4.10697 -1.4342,6.88128 -0.47034,4.50363 -0.35956,5.09764 1.03883,5.5415 0.86142,0.2734 2.6215,1.59811 3.91203,2.94519 1.29061,1.347 2.44236,2.44904 2.55947,2.44904 0.1172,0 2.652,-1.84479 5.63276,-4.10091 8.42333,-6.37563 8.76358,-6.48438 20.68062,-6.60117 9.04562,-0.0886 11.10655,0.13457 13.82178,1.49665 1.75505,0.88035 5.27631,1.83487 7.82566,2.12245 4.40373,0.49681 4.61319,0.43829 4.19055,-1.17809 -0.22692,-0.86757 0.0374,-1.77333 0.84836,-2.8348 l -0.0529,0.0484 -0.92359,-0.95239 c -5.8e-4,-5e-4 -8.2e-4,0 -0.002,0 -1.25946,-1.16924 -4.18734,-6.1119 -4.18734,-7.37908 0,-0.76299 -0.63873,-2.09196 -1.41819,-2.95322 -1.30922,-1.44698 -1.31429,-1.62376 -0.0657,-2.32258 1.21448,-0.67965 1.06849,-1.461 -1.4502,-7.70722 -3.14319,-7.79516 -3.29893,-8.61323 -1.62789,-8.61323 0.64679,0 2.12282,-0.35888 3.27977,-0.79872 l 2.10328,-0.80037 -1.35416,-3.50223 c -0.74455,-1.92658 -1.60568,-3.79342 -1.9144,-4.14729 -0.30864,-0.35388 -2.24769,0.0803 -4.309,0.96353 -2.06131,0.88363 -3.96541,1.38888 -4.23217,1.12212 -0.26668,-0.26676 -0.485,-1.87389 -0.485,-3.57108 0,-2.49329 -0.47213,-3.42273 -2.45862,-4.83726 -2.83988,-2.02206 -2.98011,-2.94789 -1.05484,-6.98529 1.49148,-3.12753 1.54159,-3.0087 -2.20733,-5.26302 -1.23103,-0.74021 -1.17208,-1.07589 1.39899,-7.98734 0.27372,-0.73595 -0.36663,-0.77627 -2.58668,-0.16325 -1.62204,0.44788 -3.24921,0.62785 -3.61751,0.40018 -0.95329,-0.58917 -2.80187,-9.31327 -2.18492,-10.31156 0.28283,-0.45755 1.38399,-0.83233 2.44743,-0.83233 4.0473,0 4.41782,-0.55589 2.99805,-4.50428 -0.7117,-1.97977 -1.0552,-3.838 -0.76352,-4.12968 0.29175,-0.29167 3.53235,-1.20021 7.203,-2.01845 9.32688,-2.07901 9.83983,-2.67006 8.59879,-9.90498 -0.9737,-5.67664 -0.95726,-5.80007 0.9444,-7.0461 1.06467,-0.69759 1.93681,-1.77111 1.93681,-2.38503 0,-1.56328 -3.68383,-3.80284 -7.1918,-4.37308 -2.45642,-0.39928 -3.06334,-0.91043 -3.61752,-3.04927 -1.10056,-4.24711 -4.20262,-4.46642 -6.58675,-0.46575 -1.7784,2.98404 -4.59098,5.91448 -5.67597,5.91448 -1.02467,0 -0.55739,-3.30333 1.00523,-7.1038 2.07229,-5.0401 -2.54825,-7.03994 -6.81725,-2.95002 -1.95985,1.87765 -2.46114,2.04312 -3.1053,1.02443 -1.19702,-1.89314 -0.98825,-2.40913 2.04726,-5.09657 3.01321,-2.66769 3.17376,-4.03682 0.38896,-3.30857 -1.2026,0.31454 -1.80566,-0.0139 -2.10168,-1.14605 -0.22832,-0.87322 -1.95871,-2.30546 -3.8448,-3.18212 -3.21187,-1.49288 -3.43498,-1.81414 -3.50546,-5.07411 -0.0434,-1.99699 -0.65473,-4.120011 -1.4342,-4.98135 -1.7444,-1.927235 -1.71985,-3.375612 0.0768,-4.739576 1.33167,-1.010824 1.30552,-1.089828 -0.36175,-1.114004 -0.0309,-4.92e-4 -0.0619,-3.28e-4 -0.0928,0 z"
       id="path1302"
       inkscape:label="LHIN2_1" />
    <g
       id="g2059"
       transform="matrix(0.81954223,0,0,0.81954223,-528.74752,-687.0711)"
       inkscape:label="LHIN1_0"
       style="fill:#40bf40;fill-opacity:1;stroke:#000000;stroke-opacity:1">
      <path
         style="fill:#40bf40;fill-opacity:1;stroke:#000000;stroke-opacity:1"
         d="m 737.59773,1198.8491 c 0.7984,-2.0808 -1.254,-6.4363 -3.033,-6.4363 -1.6284,0 -2.9164,4.0899 -2.022,6.4206 0.7816,2.0368 4.2752,2.0477 5.055,0.016 z"
         id="path1410"
         inkscape:label="LHIN1_2" />
      <path
         style="fill:#40bf40;fill-opacity:1;stroke:#000000;stroke-opacity:1"
         d="m 719.42183,1181.372 c -0.383,-1.2066 -1.8324,-2.278 -3.545,-2.6206 -4.4047,-0.8809 -5.469,-2.7147 -4.1222,-7.1029 0.6561,-2.1375 0.7593,-4.0564 0.2458,-4.5698 -1.0182,-1.0183 0.695,-6.7821 2.3482,-7.9003 1.8606,-1.2585 6.0382,-0.8375 8.4494,0.8514 1.7951,1.2573 3.5674,1.4679 7.9725,0.9475 3.1154,-0.3681 7.3685,-0.6336 9.4513,-0.5899 3.263,0.068 3.9548,-0.3204 5,-2.8099 0.6672,-1.5892 1.213,-4.8547 1.213,-7.2568 0,-4.2815 -0.075,-4.3795 -3.8008,-4.9883 -5.4779,-0.8951 -6.3989,-2.2143 -3.8279,-5.4829 1.1708,-1.4884 2.1287,-3.3636 2.1287,-4.167 0,-0.8035 0.7382,-2.7105 1.6404,-4.2378 1.1658,-1.9736 1.408,-3.6093 0.8371,-5.6543 -0.8771,-3.1417 -0.8182,-4.06 0.6143,-9.5824 1.2175,-4.6935 3.0184,-6.4783 7.8495,-7.7791 4.0336,-1.0862 10.165,-6.5431 12.6583,-11.2659 0.8044,-1.5238 2.2979,-2.75 3.3494,-2.75 1.0436,0 3.2821,-1.165 4.9743,-2.5888 2.9082,-2.4472 3.0767,-2.4778 3.0767,-0.5591 0,1.1165 -0.45,2.308 -1,2.6479 -0.55,0.34 -1,2.815 -1,5.5 0,2.6851 0.45,5.1601 1,5.5 0.55,0.34 1,3.94 1,8 0,4.0601 -0.45,7.6601 -1,8 -1.2024,0.7432 -1.3591,16.5 -0.1641,16.5 0.4597,0 2.9808,1.6711 5.6024,3.7136 l 4.7665,3.7135 -2.8524,2.302 c -5.1144,4.1274 -6.3524,5.5913 -6.3524,7.5117 0,3.979 -1.8858,5.7592 -6.1007,5.7592 -3.0452,0 -6.1529,1.2467 -12.7148,5.1008 -11.0613,6.4967 -13.0826,8.4099 -13.8312,13.0913 -0.7122,4.4542 -1.5165,4.7339 -3.7613,1.3079 -0.901,-1.375 -2.3318,-2.5 -3.1797,-2.5 -1.4834,0 -10.0581,3.1951 -13.6487,5.0857 -2.379,1.2527 -2.5389,1.1977 -3.2766,-1.1267 z"
         id="path1298"
         inkscape:label="LHIN1_1" />
    </g>
    <rect
       style="fill:none;fill-opacity:1;stroke:#999999;stroke-width:1;stroke-miterlimit:4;stroke-dasharray:none;stroke-opacity:1"
       id="rect7102"
       width="139.74765"
       height="128.68172"
       x="318.26669"
       y="150.80096" />
    <text
       xml:space="preserve"
       style="font-style:normal;font-weight:normal;font-size:13.3333px;line-height:1.25;font-family:sans-serif;fill:#000000;fill-opacity:1;stroke:none"
       x="90.081528"
       y="248.07065"
       id="text2323"
       inkscape:label="text1"><tspan
         sodipodi:role="line"
         id="tspan2321"
         x="90.081528"
         y="248.07065"
         style="font-size:13.3333px">1</tspan></text>
    <text
       xml:space="preserve"
       style="font-style:normal;font-weight:normal;font-size:13.3333px;line-height:1.25;font-family:sans-serif;fill:#000000;fill-opacity:1;stroke:none"
       x="129.07185"
       y="212.74371"
       id="text2323-8"
       inkscape:label="text2"><tspan
         sodipodi:role="line"
         id="tspan2321-7"
         x="129.07185"
         y="212.74371"
         style="font-size:13.3333px">2</tspan></text>
    <text
       xml:space="preserve"
       style="font-style:normal;font-weight:normal;font-size:13.3333px;line-height:1.25;font-family:sans-serif;fill:#000000;fill-opacity:1;stroke:none"
       x="154.42375"
       y="186.56674"
       id="text2323-8-7"
       inkscape:label="text3"><tspan
         sodipodi:role="line"
         id="tspan2321-7-3"
         x="154.42375"
         y="186.56674"
         style="font-size:13.3333px">3</tspan></text>
    <text
       xml:space="preserve"
       style="font-style:normal;font-weight:normal;font-size:13.3333px;line-height:1.25;font-family:sans-serif;fill:#000000;fill-opacity:1;stroke:none"
       x="173.9084"
       y="218.80444"
       id="text2323-8-7-5"
       inkscape:label="text4"><tspan
         sodipodi:role="line"
         id="tspan2321-7-3-8"
         x="173.9084"
         y="218.80444"
         style="font-size:13.3333px">4</tspan></text>
    <text
       xml:space="preserve"
       style="font-style:normal;font-weight:normal;font-size:13.3333px;line-height:1.25;font-family:sans-serif;fill:#000000;fill-opacity:1;stroke:none"
       x="166.9993"
       y="164.25346"
       id="text2323-8-7-5-4"
       inkscape:label="text5"><tspan
         sodipodi:role="line"
         id="tspan2321-7-3-8-9"
         x="166.9993"
         y="164.25346"
         style="font-size:13.3333px">5</tspan></text>
    <text
       xml:space="preserve"
       style="font-style:normal;font-weight:normal;font-size:13.3333px;line-height:1.25;font-family:sans-serif;fill:#000000;fill-opacity:1;stroke:none"
       x="196.51637"
       y="199.2677"
       id="text2323-8-7-5-4-6"
       inkscape:label="text6"><tspan
         sodipodi:role="line"
         id="tspan2321-7-3-8-9-0"
         x="196.51637"
         y="199.2677"
         style="font-size:13.3333px">6</tspan></text>
    <text
       xml:space="preserve"
       style="font-style:normal;font-weight:normal;font-size:13.3333px;line-height:1.25;font-family:sans-serif;fill:#000000;fill-opacity:1;stroke:none"
       x="207.67464"
       y="189.88593"
       id="text2323-8-7-5-4-6-9"
       inkscape:label="text7"><tspan
         sodipodi:role="line"
         id="tspan2321-7-3-8-9-0-5"
         x="207.67464"
         y="189.88593"
         style="font-size:13.3333px">7</tspan></text>
    <text
       xml:space="preserve"
       style="font-style:normal;font-weight:normal;font-size:13.3333px;line-height:1.25;font-family:sans-serif;fill:#000000;fill-opacity:1;stroke:none"
       x="194.77512"
       y="162.94685"
       id="text2323-8-7-5-4-6-9-5"
       inkscape:label="text8"><tspan
         sodipodi:role="line"
         id="tspan2321-7-3-8-9-0-5-8"
         x="194.77512"
         y="162.94685"
         style="font-size:13.3333px">8</tspan></text>
    <text
       xml:space="preserve"
       style="font-style:normal;font-weight:normal;font-size:13.3333px;line-height:1.25;font-family:sans-serif;fill:#000000;fill-opacity:1;stroke:none"
       x="229.80832"
       y="141.22446"
       id="text2323-8-7-5-4-6-9-5-0"
       inkscape:label="text9"><tspan
         sodipodi:role="line"
         id="tspan2321-7-3-8-9-0-5-8-2"
         x="229.80832"
         y="141.22446"
         style="font-size:13.3333px">9</tspan></text>
    <text
       xml:space="preserve"
       style="font-style:normal;font-weight:normal;font-size:13.3333px;line-height:1.25;font-family:sans-serif;fill:#000000;fill-opacity:1;stroke:none"
       x="284.09424"
       y="115.02689"
       id="text2323-8-7-5-4-6-9-5-0-8"
       inkscape:label="text10"><tspan
         sodipodi:role="line"
         id="tspan2321-7-3-8-9-0-5-8-2-3"
         x="284.09424"
         y="115.02689"
         style="font-size:13.3333px">10</tspan></text>
    <text
       xml:space="preserve"
       style="font-style:normal;font-weight:normal;font-size:13.3333px;line-height:1.25;font-family:sans-serif;fill:#000000;fill-opacity:1;stroke:none"
       x="345.84061"
       y="77.601891"
       id="text2323-8-7-5-4-6-9-5-0-8-9"
       inkscape:label="text11"><tspan
         sodipodi:role="line"
         id="tspan2321-7-3-8-9-0-5-8-2-3-1"
         x="345.84061"
         y="77.601891"
         style="font-size:13.3333px">11</tspan></text>
    <text
       xml:space="preserve"
       style="font-style:normal;font-weight:normal;font-size:13.3333px;line-height:1.25;font-family:sans-serif;fill:#000000;fill-opacity:1;stroke:none"
       x="187.85146"
       y="104.39537"
       id="text2323-8-7-5-4-6-9-5-0-8-3"
       inkscape:label="text12"><tspan
         sodipodi:role="line"
         id="tspan2321-7-3-8-9-0-5-8-2-3-8"
         x="187.85146"
         y="104.39537"
         style="font-size:13.3333px">12</tspan></text>
    <text
       xml:space="preserve"
       style="font-style:normal;font-weight:normal;font-size:13.3333px;line-height:1.25;font-family:sans-serif;fill:#000000;fill-opacity:1;stroke:none"
       x="179.76721"
       y="60.971458"
       id="text2323-8-7-5-4-6-9-5-0-8-0"
       inkscape:label="text13"><tspan
         sodipodi:role="line"
         id="tspan2321-7-3-8-9-0-5-8-2-3-0"
         x="179.76721"
         y="60.971458"
         style="font-size:13.3333px">13</tspan></text>
    <text
       xml:space="preserve"
       style="font-style:normal;font-weight:normal;font-size:13.3333px;line-height:1.25;font-family:sans-serif;fill:#000000;fill-opacity:1;stroke:none"
       x="401.33725"
       y="228.43398"
       id="text2323-8-7-5-4-6-9-5-0-8-0-6"
       inkscape:label="text13"><tspan
         sodipodi:role="line"
         id="tspan2321-7-3-8-9-0-5-8-2-3-0-6"
         x="401.33725"
         y="228.43398"
         style="font-size:13.3333px">13</tspan></text>
    <text
       xml:space="preserve"
       style="font-style:normal;font-weight:normal;font-size:13.3333px;line-height:1.25;font-family:sans-serif;fill:#000000;fill-opacity:1;stroke:none"
       x="349.78436"
       y="212.59805"
       id="text2323-8-7-5-4-6-9-5-0-8-0-6-7"
       inkscape:label="text14"><tspan
         sodipodi:role="line"
         id="tspan2321-7-3-8-9-0-5-8-2-3-0-6-1"
         x="349.78436"
         y="212.59805"
         style="font-size:13.3333px">14</tspan></text>
  </g>
</svg>
